<svg version="1.2" xmlns="http://www.w3.org/2000/svg" viewBox="0 0 838 673" width="838" height="673">
	<title>about2-svg</title>
	<style>
		.s0 { fill: #3f3d56 } 
		.s1 { fill: #e4e4e4 } 
		.s2 { fill: #f0f0f0 } 
		.s3 { fill: #cacaca } 
		.s4 { fill: #c13a95 } 
		.s5 { fill: #ffb6b6 } 
		.s6 { fill: #2f2e41 } 
	</style>
	<path id="Layer" class="s0" d="m605.3 202v-202c13 0.5 25.9 2.3 38.6 5.3 12.7 3 25.1 7.3 37 12.7 11.8 5.4 23.1 11.9 33.8 19.5 10.6 7.6 20.4 16.2 29.3 25.7z"/>
	<path id="Layer" class="s1" d="m767.6 118.5c6.8 10.7 12.7 22.1 17.4 34 4.7 11.8 8.3 24.1 10.7 36.6 2.3 12.6 3.5 25.3 3.5 38.1h-193.9l138.7-138.8c8.8 9.2 16.7 19.3 23.6 30.1z"/>
	<path id="Layer" class="s2" d="m799.4 241.7q0 4.7-0.2 9.4-0.2 4.7-0.6 9.4-0.5 4.7-1.1 9.4-0.7 4.7-1.5 9.3-0.3 1.5-0.6 2.9-1.7 8.1-4 16-2.3 7.9-5.2 15.7-2.9 7.7-6.5 15.1-3.6 7.4-7.7 14.5-0.9 1.6-1.8 3.1-4.1 6.7-8.7 13.2-4.7 6.4-9.8 12.4-5.1 6-10.6 11.6-5.6 5.7-11.5 10.8-1.2 1.1-2.4 2.1c-8.5 7.1-17.6 13.5-27.1 19.2-9.6 5.7-19.6 10.5-29.9 14.5-10.4 4-21.1 7.1-31.9 9.4-10.9 2.2-22 3.6-33.1 4v-202z"/>
	<path id="Layer" class="s3" d="m547.6 440.3c-12.6-2.4-24.9-6-36.7-10.7-11.9-4.7-23.3-10.6-34.1-17.5-10.7-6.8-20.8-14.7-30.1-23.5l146.9-146.9v202q-3.9 0.2-8 0.2c-12.7 0-25.5-1.2-38-3.6z"/>
	<path id="Layer" class="s4" d="m594.1 25.2v202h-210.4c0-111.7 90.5-202.2 202.2-202.2q4.1 0 8.2 0.2z"/>
	<path id="Layer" class="s4" d="m537.7 241.7l-42.5 42.5-1.4 1.4h-0.1l-37 37.1-1.4 1.4-40.1 40-1.4 1.4v0.1l-23.1 23c-9.9-9.4-18.9-19.8-26.8-31.1-7.9-11.2-14.6-23.2-20-35.8-5.4-12.6-9.5-25.7-12.3-39.2-2.8-13.4-4.2-27.1-4.1-40.8z"/>
	<path id="Layer" class="s5" d="m199.2 427.4c-3-0.6-5.7-2.2-7.6-4.6-1.9-2.4-2.8-5.4-2.7-8.4 0.2-3 1.5-5.9 3.6-8.1v-88.6l19.9-1.7-1.7 90.9c1.2 1.4 2.1 3 2.6 4.7 0.5 1.8 0.7 3.6 0.4 5.4-0.3 1.8-1 3.5-2 5-1 1.5-2.3 2.8-3.8 3.7-2.6 1.6-5.7 2.2-8.7 1.7z"/>
	<path id="Layer" class="s1" d="m215.6 338.3l-26.1-2.5q-1.1-0.1-2.1-0.7-1-0.6-1.6-1.5-0.7-0.9-0.9-2-0.2-1.1 0-2.2l6.3-25.4c0.4-3.8 2.3-7.2 5.2-9.7 3-2.4 6.7-3.5 10.5-3.1 3.8 0.3 7.3 2.2 9.7 5.1 2.5 3 3.6 6.8 3.3 10.5l1.3 26q0.1 1.2-0.3 2.2-0.5 1.1-1.3 1.8-0.8 0.8-1.9 1.2-1 0.4-2.1 0.3z"/>
	<path id="Layer" class="s5" d="m172.2 662.3v-39h14.9l-4.8 39h-10.1z"/>
	<path id="Layer" class="s6" d="m169.6 659h19.9c1.7 0 3.4 0.3 4.9 1 1.5 0.6 2.9 1.5 4.1 2.7 1.2 1.2 2.1 2.6 2.8 4.1 0.6 1.6 0.9 3.2 0.9 4.9v0.4h-32.6z"/>
	<path id="Layer" class="s5" d="m265.4 662.3v-39h14.9l-4.8 39h-10.1z"/>
	<path id="Layer" class="s6" d="m262.8 659h20c1.6 0 3.3 0.3 4.8 1 1.6 0.6 3 1.5 4.1 2.7 1.2 1.2 2.1 2.6 2.8 4.1 0.6 1.6 0.9 3.2 0.9 4.9v0.4h-32.6z"/>
	<path id="Layer" class="s5" d="m253.2 348.9l6.6 42.1-62.7 0.8 8.3-40.4 47.8-2.5z"/>
	<path id="Layer" class="s6" d="m258 380.7c19.9 34.7 21.6 152.2 22.4 273.5h-16.9l-40.4-177-37.1 172.4h-16.5l11.5-193.9c0 0-3.4-38.9 14-61.8l4.3-12.3z"/>
	<path id="Layer" class="s1" d="m207.5 372.1q-0.1 0-0.3 0-0.1 0-0.2 0-0.2 0-0.3 0-0.1 0-0.3-0.1-0.9-0.1-1.7-0.6-0.8-0.5-1.4-1.2-0.6-0.7-1-1.5-0.3-0.9-0.4-1.8c-0.6-8.5-3.7-23.2-9.1-43.9-1.9-7-1.5-14.4 1.1-21.2 2.6-6.8 7.3-12.6 13.3-16.6 6.1-4 13.2-6 20.5-5.7 7.2 0.2 14.2 2.8 20 7.2q2.7 2.1 5 4.7 2.3 2.7 4 5.7 1.7 3 2.8 6.3 1 3.3 1.4 6.8c2.7 23.8-2.4 47.7-4.7 56.9q-0.2 0.8-0.7 1.6-0.5 0.8-1.3 1.4-0.7 0.6-1.6 0.9-0.8 0.3-1.8 0.3l-43.2 0.8q0 0-0.1 0z"/>
	<path id="Layer" class="s5" d="m340 288.7c5.1 0.3 9.4 3.7 10.8 8.5 1.5 4.8-0.2 10-4.1 13.1-4 3.1-9.5 3.4-13.8 0.8l-57.8 29.5q-1.4 0.7-2.9 0.9-1.4 0.3-2.9 0-1.5-0.2-2.8-1-1.3-0.7-2.3-1.7l-17-18 15.9-14 10.4 9.1 54.1-18.3q0.1-0.3 0.1-0.5 0.1-0.2 0.2-0.4 0.1-0.3 0.2-0.5 0.1-0.2 0.1-0.4c2.1-4.6 6.8-7.4 11.8-7.1z"/>
	<path id="Layer" class="s1" d="m271.6 316.9l-19.7 17.3q-0.8 0.7-1.9 1-1.1 0.4-2.2 0.2-1.1-0.2-2.1-0.8-0.9-0.6-1.6-1.5l-14.1-22c-2.5-2.9-3.7-6.6-3.4-10.4 0.2-3.8 2-7.4 4.9-9.9 2.9-2.5 6.6-3.7 10.4-3.5 3.8 0.3 7.4 2.1 9.9 4.9l19.8 16.9q0.8 0.7 1.3 1.8 0.5 1 0.5 2.1 0 1.1-0.5 2.2-0.4 1-1.3 1.7z"/>
	<path id="Layer" class="s5" d="m245.1 260.3c-7 12.9-23.1 17.6-35.9 10.5-12.9-7-17.6-23.1-10.6-35.9 7.1-12.9 23.1-17.6 36-10.6 12.9 7.1 17.6 23.1 10.5 36z"/>
	<path id="Layer" class="s6" d="m254.7 246.1h-12.2v26.1q-4.5 0.9-8.7 1.5l0.2-11.8-2.9 12.2c-19.8 2.4-33.2-0.6-42-4.5 0 0-2.6-22.2 3.5-42.3 0.7-2.4 1.7-4.7 3.1-6.8 1.4-2 3.1-3.9 5-5.5 2-1.5 4.2-2.8 6.5-3.7 2.3-0.9 4.8-1.4 7.3-1.6q0.7 0 1.3 0 1 0 2.1 0.1 1 0 2 0.2 1 0.1 2 0.4 0.9 0.2 1.9 0.5h5.4c19.4 0 25.5 15.7 25.5 35.2z"/>
	<path id="Layer" class="s0" d="m413.8 365.5c-8.2-8.1-15.6-17-22.1-26.5-6.6-9.5-12.2-19.6-16.8-30.2-4.7-10.5-8.3-21.5-10.8-32.8-2.6-11.2-4.1-22.7-4.5-34.2l4-0.2c0.4 11.3 1.9 22.5 4.4 33.5 2.5 11 6 21.8 10.5 32.1 4.6 10.4 10.1 20.3 16.5 29.6 6.3 9.3 13.6 18 21.6 25.9z"/>
	<path id="Layer" class="s0" d="m456.7 322.7l-2.9 2.8q-8.2-8.8-15.3-18.5-7-9.7-12.8-20.2-5.7-10.6-10-21.8-4.3-11.2-7.1-22.9l1.9-0.4h2.1q2.7 11.3 7 22.2 4.2 10.9 9.7 21.1 5.6 10.3 12.5 19.7 6.8 9.5 14.9 18z"/>
	<path id="Layer" class="s0" d="m495.3 284.3l-1.5 1.3h-0.1l-1.5 1.3q-4.2-5-8-10.3-3.9-5.4-7.3-10.9-3.5-5.6-6.5-11.4-3-5.8-5.7-11.8l1.9-0.8h2.2q2.5 5.7 5.4 11.3 3 5.5 6.3 10.9 3.3 5.3 7 10.4 3.6 5.1 7.7 9.9 0 0 0 0 0 0 0 0.1 0 0 0 0 0.1 0 0.1 0z"/>
</svg>