<svg version="1.2" xmlns="http://www.w3.org/2000/svg" viewBox="0 0 845 596" width="845" height="596">
	<title>undraw_questions_re_1fy7-svg</title>
	<style>
		.s0 { fill: #ffb8b8 } 
		.s1 { fill: #2f2e41 } 
		.s2 { fill: #ff3494 } 
		.s3 { fill: #3f3d56 } 
	</style>
	<path id="Layer" class="s0" d="m126.5 582.6v-47.3h18.1l-5.8 47.3h-12.3z"/>
	<path id="Layer" class="s1" d="m162.4 594h-38.5v-14.9h23.7c1.9 0 3.8 0.4 5.7 1.1 1.8 0.8 3.4 1.9 4.8 3.2 1.4 1.4 2.5 3.1 3.2 4.9 0.8 1.8 1.1 3.7 1.1 5.7 301.7 731.4 301.7 731.4 301.7 731.4z"/>
	<path id="Layer" class="s0" d="m82.5 582.6v-47.3h18.1l-5.8 47.3h-12.3z"/>
	<path id="Layer" class="s1" d="m118.4 594h-38.5v-14.9h23.7c1.9 0 3.8 0.4 5.7 1.1 1.8 0.8 3.4 1.9 4.8 3.2 1.4 1.4 2.5 3.1 3.2 4.9 0.8 1.8 1.1 3.7 1.1 5.7 257.7 731.4 257.7 731.4 257.7 731.4z"/>
	<path id="Layer" class="s1" d="m93.3 568l-12-0.6q-1 0-1.8-0.4-0.8-0.5-1.5-1.1-0.6-0.8-0.9-1.6-0.3-0.9-0.2-1.9l14.3-158.4 65.9 17.8 6.3-1.8-19.8 140.3q-0.2 0.8-0.5 1.5-0.4 0.7-1 1.3-0.6 0.5-1.3 0.8-0.8 0.3-1.6 0.4l-12.9 0.6q-1 0-1.9-0.3-0.9-0.4-1.6-1.1-0.7-0.6-1.1-1.5-0.3-1-0.3-1.9l2.3-84.2c0-0.4-0.1-0.8-0.4-1.1-0.2-0.3-0.6-0.5-1-0.5-0.3-0.1-0.7 0-1.1 0.3-0.3 0.2-0.5 0.5-0.6 0.9l-22.5 88.8q-0.2 0.8-0.6 1.5-0.4 0.7-1 1.2-0.7 0.5-1.4 0.8-0.8 0.3-1.6 0.2-0.1 0-0.2 0z"/>
	<path id="Layer" class="s0" d="m128.7 274.3c-13.5 0-24.5-11-24.5-24.5 0-13.6 11-24.6 24.5-24.6 13.6 0 24.6 11 24.6 24.6 0 13.5-11 24.5-24.6 24.5z"/>
	<path id="Layer" class="s2" d="m88.3 313.8q0.7-4 2.3-7.8 1.6-3.8 3.9-7.2 2.3-3.3 5.3-6.1 2.9-2.7 6.4-4.7 3.4-2 7.2-3.2 3.8-1.3 7.7-1.6 4-0.4 7.9 0.1 0.9 0.1 1.9 0.3c4.2 0.7 8.2 2.1 11.9 4.2 3.7 2.1 7.1 4.8 9.9 8.1 2.7 3.2 4.9 6.9 6.5 10.9 1.5 3.9 2.3 8.2 2.4 12.4l2.6 104.8q0 0.9-0.3 1.8-0.4 0.9-1 1.6-0.7 0.7-1.5 1-0.9 0.4-1.9 0.4-0.2 0-0.4 0-0.2 0-0.4-0.1-0.2 0-0.4-0.1-0.2 0-0.4-0.1l-63.3-22.9q-0.7-0.3-1.2-0.7-0.6-0.4-1-1-0.4-0.5-0.6-1.2-0.2-0.6-0.3-1.3l-0.9-21.2-2.8-58.3q-0.1-4.1 0.5-8.1z"/>
	<path id="Layer" class="s0" d="m188.2 416.9c-1.5-0.5-2.9-1.3-4-2.4-1.1-1.1-2-2.4-2.5-3.9-0.5-1.5-0.7-3-0.5-4.6 0.2-1.6 0.7-3 1.6-4.4l-21.5-28.5 18.6-1.2 17.5 27.3c1.9 1.5 3.2 3.6 3.7 5.9 0.5 2.3 0.2 4.7-0.9 6.8-1.1 2.1-2.9 3.8-5.1 4.7-2.2 0.9-4.6 1-6.9 0.3z"/>
	<path id="Layer" class="s2" d="m173.1 396.5q-0.4-0.2-0.8-0.4-0.4-0.3-0.7-0.6-0.4-0.3-0.6-0.7-0.3-0.4-0.5-0.8l-32.3-77.1c-1.3-3.1-1.3-6.5-0.1-9.6 1.3-3 3.7-5.5 6.8-6.8 3-1.2 6.4-1.3 9.5 0 3.1 1.3 5.5 3.7 6.8 6.7l32.3 77.1q0.4 0.9 0.4 1.8 0 0.9-0.4 1.8-0.3 0.9-1 1.5-0.6 0.7-1.5 1l-14.3 6.1q-0.5 0.1-0.9 0.2-0.5 0.1-0.9 0.1-0.5 0-0.9-0.1-0.5 0-0.9-0.2z"/>
	<path id="Layer" class="s3" d="m120.8 393.8l31.1-59.5q0.5-0.9 1.2-1.5 0.8-0.6 1.7-0.9 0.9-0.3 1.9-0.2 0.9 0 1.8 0.5l45.1 23.5q0.9 0.5 1.5 1.2 0.6 0.8 0.9 1.7 0.3 0.9 0.2 1.9-0.1 1-0.5 1.8l-31.1 59.5q-0.5 0.9-1.2 1.5-0.7 0.6-1.7 0.9-0.9 0.3-1.9 0.2-0.9-0.1-1.8-0.5l-45.1-23.6q-0.8-0.4-1.5-1.2-0.6-0.7-0.9-1.6-0.3-0.9-0.2-1.9 0.1-1 0.5-1.8z"/>
	<path id="Layer" class="s0" d="m141.8 373.5c-0.8 2.2-2.3 4.1-4.3 5.4-2.1 1.2-4.5 1.7-6.8 1.3-2.4-0.4-4.5-1.6-6.1-3.4l-28.3-15.9 0.1-18.5 29.8 19.7c1.2-0.9 2.7-1.6 4.2-1.9 1.6-0.3 3.1-0.2 4.6 0.2 1.6 0.5 2.9 1.3 4.1 2.3 1.1 1.1 2 2.4 2.6 3.9 0.8 2.2 0.9 4.6 0.1 6.9z"/>
	<path id="Layer" class="s2" d="m104 370.7l-24.3-19.2c-2.6-0.9-5-2.4-6.9-4.4-2-2-3.4-4.5-4.1-7.1-0.8-2.7-0.9-5.5-0.3-8.2 0.5-2.8 1.7-5.3 3.5-7.5l22.1-28.9c1.5-1.9 3.7-3.2 6.1-3.6 2.3-0.4 4.8 0.1 6.9 1.3 2.1 1.3 3.6 3.2 4.4 5.5 0.7 2.3 0.6 4.8-0.3 7.1l-17.5 28.6 25.7 12.1q0.9 0.5 1.6 1.2 0.6 0.8 0.9 1.8 0.3 0.9 0.1 1.9-0.1 1-0.6 1.9l-10.4 16.4q-0.3 0.4-0.6 0.7-0.4 0.4-0.8 0.7-0.4 0.2-0.8 0.4-0.5 0.2-1 0.3 0 0-0.1 0-0.4 0.1-0.9 0.1-0.5-0.1-1-0.2-0.4-0.1-0.9-0.3-0.4-0.3-0.8-0.6z"/>
	<path id="Layer" class="s1" d="m108.3 267.7q-2-1.6-3.6-3.5-1.7-1.8-3-4-1.2-2.2-2.1-4.5-0.8-2.4-1.2-4.9-0.4-2.8-0.2-5.7 0.1-2.8 0.8-5.6 0.8-2.8 2-5.4 1.2-2.6 3-4.9 1.6-2.1 3.6-4 2-1.9 4.3-3.5 2.2-1.5 4.7-2.8 2.4-1.2 5-2 1.7-0.6 3.3-1 1.7-0.4 3.4-0.6 1.7-0.1 3.4-0.1 1.7 0 3.4 0.2 1.8 0.2 3.5 0.8 1.6 0.6 3.2 1.4 1.5 0.9 2.9 2 1.4 1.2 2.5 2.6c2.8 3.5 4 8.1 5.2 12.5 0.5 1.7 0.9 3.8-0.2 5-1 1.2-2.8 1.1-4.3 0.8-4.5-0.9-8.9-2.3-13.3-2.4-4.5-0.1-9.2 1.3-11.9 5-2 2.9-2.6 6.8-2.5 10.5q0.1 1.2 0.2 2.5 0.1 1.2 0.3 2.4 0.2 1.3 0.5 2.5 0.3 1.2 0.7 2.4c0.4 1.2 0.8 2.6 0.2 3.7-0.7 1.2-2.3 1.2-3.5 0.6q-0.4-0.2-0.9-0.5-0.4-0.3-0.7-0.7-0.4-0.3-0.8-0.7-0.4-0.3-0.7-0.7-0.3-0.4-0.7-0.7-0.4-0.3-0.8-0.5-0.5-0.2-1-0.4-0.5-0.1-1-0.1-0.5 0-0.9 0.3-0.4 0.2-0.7 0.6-0.3 0.5-0.3 0.9-0.1 0.5 0.1 1z"/>
</svg>