<svg xmlns="http://www.w3.org/2000/svg" width="142" height="96.094" viewBox="0 0 142 96.094"><defs><style>.a{fill:#fcd486;}.b{fill:#feca57;}.c{fill:#f4b537;}.d{fill:#e59d1f;}.e{fill:#ffcdbf;}.f{fill:#ffbeab;}.g{fill:#ff9c1a;}.h{fill:rgba(80,203,80,0.82);}.i{fill:rgba(138,181,214,0.99);}.j{fill:#e45050;}.k{fill:none;stroke:#707070;}</style></defs><g transform="translate(-617 -972.906)"><g transform="translate(656.5 972.905)"><path class="a" d="M90.476,40.176c0-12.633,0-10.01,0-13.462a4.048,4.048,0,1,1,8.088.006V40.155a16.745,16.745,0,0,0,12.492-16.016,16.574,16.574,0,0,0-33.147,0A16.747,16.747,0,0,0,90.476,40.176Zm0,0" transform="translate(-62.881 -6.145)"/><path class="b" d="M83.541,24.14A16.578,16.578,0,0,1,97.3,7.805,16.584,16.584,0,0,0,77.91,24.14,16.747,16.747,0,0,0,90.476,40.176V37.511A16.532,16.532,0,0,1,83.541,24.14Zm0,0" transform="translate(-62.882 -6.146)"/><path class="c" d="M135.858,56.388a9.122,9.122,0,1,0-18.245,0,9.292,9.292,0,0,0,5.114,8.1c0-3.845,0-2.221,0-5.525a4.048,4.048,0,1,1,8.088.006V64.45a9.293,9.293,0,0,0,5.041-8.062Zm0,0" transform="translate(-95.133 -38.394)"/><path class="d" d="M123.257,56.837c-.008-.148-.013-.3-.013-.446a9.126,9.126,0,0,1,6.307-8.677,9.125,9.125,0,0,0-11.938,8.678,9.292,9.292,0,0,0,5.114,8.1c0-3.845,0-2.221,0-5.526A4.485,4.485,0,0,1,123.257,56.837Zm0,0" transform="translate(-95.134 -38.397)"/><path class="e" d="M50.2,120.342,43.446,129.2a.723.723,0,0,1-1.3-.438v-39.5a4.232,4.232,0,1,0-8.463-.006c0,3.724,0,.117,0,29.974V115.13a4.286,4.286,0,0,0-4.295-4.232,4.233,4.233,0,0,0-4.232,4.232v1.141a4.232,4.232,0,0,0-8.465,0v.856a4.232,4.232,0,1,0-8.465,0v6.608h.013l-.013,17.88c-.007,7.635,6.072,7.073,6.068,13.213,0,0,0,4.809,0,4.809,0,3.224,2,3.98,3.313,4.129H38.153c4.549,0,3.935-4.041,3.935-6.789h0c.025-2.828.281-5.188,1.691-6.584l2.7-2.669h0a17.65,17.65,0,0,0,3.07-4.4l8.35-19.109c2.067-4.484-4.194-8.773-7.7-3.869Zm0,0" transform="translate(-6.276 -69.068)"/><g transform="translate(1.949 16.205)"><path class="f" d="M19.92,280.258s0-4.806,0-4.809c0-6.139-6.076-5.578-6.068-13.213l.012-17.88h-.012v-6.608a4.222,4.222,0,0,1,1.416-3.159,4.231,4.231,0,0,0-7.048,3.16v6.608h.013l-.013,17.88c-.007,7.635,6.073,7.074,6.069,13.213,0,0,0,4.809,0,4.809,0,3.224,2,3.98,3.313,4.129h5.63c-1.317-.149-3.313-.9-3.313-4.129Zm0,0" transform="translate(-8.223 -205.893)"/><path class="f" d="M99.838,239.878a1.408,1.408,0,0,0,1.408-1.408v-14.3a4.235,4.235,0,0,0-2.815,3.989v10.314A1.408,1.408,0,0,0,99.838,239.878Zm0,0" transform="translate(-81.5 -198.3)"/><path class="f" d="M145.27,127.918a1.408,1.408,0,0,0,1.408-1.408V86.34a4.239,4.239,0,0,0-2.814,3.988c0,3.547,0-.444,0,25.869h0v10.315a1.407,1.407,0,0,0,1.408,1.408Zm0,0" transform="translate(-118.405 -86.34)"/><path class="f" d="M56.14,243.414V230.254a4.233,4.233,0,0,0-2.816,3.988v9.172a1.408,1.408,0,0,0,2.816,0Zm0,0" transform="translate(-44.859 -203.244)"/><path class="f" d="M202.745,261.967l-.008,0c-1.845-.839-4.01-.331-5.53,1.793v0l-6.751,8.862a.725.725,0,0,1-1.254-.185l.005.027c.054.3.617,3.1,2.823,3.1a4.028,4.028,0,0,0,2.874-1.4l7.935-10.4a6.055,6.055,0,0,1,.99-1.094A4.483,4.483,0,0,0,202.745,261.967Zm0,0" transform="translate(-155.233 -228.689)"/></g><path d="M4.177,80.939c1.389,1.437,2.394,2.476,2.392,4.809l0,4.81c0,3.139,1.705,5.205,4.562,5.528a1.432,1.432,0,0,0,.158.009h7.551a1.408,1.408,0,1,0,0-2.815H11.372C10,93.1,9.382,92.255,9.382,90.558c0,0,0-4.806,0-4.809,0-3.472-1.69-5.223-3.183-6.767-1.551-1.6-2.889-2.99-2.886-6.446.013-18.539,0-21.374,0-24.489a2.825,2.825,0,0,1,5.65,0v8.316a1.408,1.408,0,1,0,2.815,0V47.191a2.825,2.825,0,0,1,5.65,0v9.172a1.408,1.408,0,1,0,2.815,0V46.05a2.825,2.825,0,1,1,5.65,0V56.363a1.462,1.462,0,0,0,1.47,1.408,1.408,1.408,0,0,0,1.408-1.408c0-25.151,0-15.466,0-36.182a2.863,2.863,0,0,1,.343-1.347,2.825,2.825,0,0,1,5.3,1.352v39.5a2.131,2.131,0,0,0,3.826,1.291L45,52.114l.026-.035C46.35,50.225,48,50.246,49.1,50.885a2.788,2.788,0,0,1,1.2,3.655l-.012.026L41.946,73.654C40.521,76.607,38.8,78,36.47,80.313c-3.592,3.559-1.047,10.666-2.749,12.407a2.592,2.592,0,0,1-1.885.559H25.408a1.408,1.408,0,0,0,0,2.815h6.428a5.227,5.227,0,0,0,3.9-1.405c1.554-1.589,1.5-4,1.459-5.934-.042-1.865-.061-5.134,1.26-6.441,2.378-2.356,4.5-4.125,6.054-7.485l.012-.026,8.345-19.1a5.59,5.59,0,0,0-2.348-7.254c-2.231-1.3-5.5-1.187-7.765,1.973l-5.51,7.233V35.043a18.045,18.045,0,0,0,12-13.79,1.408,1.408,0,0,0-2.769-.51,15.222,15.222,0,0,1-9.235,11.3v-5.2a10.53,10.53,0,1,0-11.28.047V32.08a15.168,15.168,0,1,1,20.419-17.35,1.408,1.408,0,0,0,2.751-.6,17.983,17.983,0,1,0-23.169,20.94v6.138a5.635,5.635,0,0,0-7.612,1.767A5.633,5.633,0,0,0,10,43.939,5.637,5.637,0,0,0,.5,48.048V72.535a10.76,10.76,0,0,0,3.677,8.4ZM25.957,23.287a7.715,7.715,0,1,1,11.281-.08V20.189a5.647,5.647,0,0,0-5.629-5.65h0A5.652,5.652,0,0,0,25.96,20.18Zm0,0" transform="translate(0)"/></g><circle class="g" cx="12" cy="12" r="12" transform="translate(633 982)"/><circle class="h" cx="12" cy="12" r="12" transform="translate(717 976)"/><circle class="i" cx="10.5" cy="10.5" r="10.5" transform="translate(738 1005)"/><circle class="j" cx="7.5" cy="7.5" r="7.5" transform="translate(617 1012)"/><path class="k" d="M-15825.035,10619l9.58-9.676" transform="translate(16453 -9606)"/><path class="k" d="M-15796,10597.439h12.984" transform="translate(16453 -9606)"/><path class="k" d="M-15748.146,10596.605h12.467" transform="translate(16453 -9606)"/><path class="k" d="M-15718.84,10604.7l6.84,9.46" transform="translate(16455 -9607)"/></g></svg>