<svg xmlns="http://www.w3.org/2000/svg" width="80.915" height="98.288" viewBox="0 0 80.915 98.288"><defs><style>.a{fill:#fff;}.b{fill:#a5ddff;}.c{fill:none;}.d{fill:#ffcdac;}.e{fill:#95e540;}.f{fill:#fe6663;}.g{fill:rgba(40,44,63,0.99);}</style></defs><g transform="translate(-1046 -976.462)"><g transform="translate(1002 976.462)"><path class="a" d="M120.4,95.08H57.459A3.458,3.458,0,0,1,54,91.621V13.459A3.458,3.458,0,0,1,57.459,10H120.4a3.458,3.458,0,0,1,3.459,3.459V91.621A3.458,3.458,0,0,1,120.4,95.08Z" transform="translate(-8.271 -8.271)"/><path class="b" d="M21.5,0A21.754,21.754,0,0,1,43,22,21.754,21.754,0,0,1,21.5,44,21.754,21.754,0,0,1,0,22,21.754,21.754,0,0,1,21.5,0Z" transform="translate(59 7.538)"/><path class="c" d="M112.133,88.538H49.188A5.194,5.194,0,0,1,44,83.35V37.064a1.729,1.729,0,1,1,3.459,0V83.35a1.731,1.731,0,0,0,1.729,1.729h62.945a1.731,1.731,0,0,0,1.729-1.729V5.188a1.731,1.731,0,0,0-1.729-1.729H77.144a1.729,1.729,0,1,1,0-3.459h34.989a5.194,5.194,0,0,1,5.188,5.188V83.35A5.194,5.194,0,0,1,112.133,88.538Z" transform="translate(0 0)"/><path class="d" d="M230.488,125v1.686a6.744,6.744,0,0,1-6.744,6.744h0A6.744,6.744,0,0,1,217,126.681V125a6.744,6.744,0,0,1,6.744-6.744h0A6.744,6.744,0,0,1,230.488,125Z" transform="translate(-143.084 -97.802)"/><path class="e" d="M186.733,206h0a15.565,15.565,0,0,0-14.482,9.865,21.253,21.253,0,0,0,28.965,0A15.565,15.565,0,0,0,186.733,206Z" transform="translate(-106.073 -170.378)"/><path class="c" d="M147.4,40a23.277,23.277,0,0,0-3.515.267,1.729,1.729,0,0,0,.524,3.419,19.781,19.781,0,0,1,2.99-.227,19.53,19.53,0,0,1,14.945,32.114,17.326,17.326,0,0,0-9.027-7.555,8.447,8.447,0,0,0,2.555-6.056V60.276a8.473,8.473,0,1,0-16.947,0v1.686a8.446,8.446,0,0,0,2.555,6.056,17.329,17.329,0,0,0-9.046,7.585,19.477,19.477,0,0,1-4.307-9.347,1.729,1.729,0,0,0-3.411.572A23,23,0,1,0,147.4,40Zm-5.015,21.962V60.276a5.015,5.015,0,1,1,10.03,0v1.686a5.015,5.015,0,1,1-10.03,0ZM135,78.134a13.832,13.832,0,0,1,24.781-.029A19.572,19.572,0,0,1,135,78.134Z" transform="translate(-66.741 -33.083)"/><path d="M222.642,401.461H198.086a1.729,1.729,0,0,1,0-3.459h24.555a1.729,1.729,0,1,1,0,3.459Z" transform="translate(-126.011 -329.177)"/><path d="M155.369,345.458a1.73,1.73,0,1,1,1.223-.507A1.742,1.742,0,0,1,155.369,345.458Z" transform="translate(-90.68 -282.859)"/><path d="M155.369,401.458a1.73,1.73,0,1,1,1.223-.507A1.742,1.742,0,0,1,155.369,401.458Z" transform="translate(-90.68 -329.175)"/><path d="M222.642,345.461H198.086a1.729,1.729,0,1,1,0-3.458h24.555a1.729,1.729,0,1,1,0,3.458Z" transform="translate(-126.011 -282.861)"/><ellipse class="f" cx="12.5" cy="13" rx="12.5" ry="13" transform="translate(46 1.538)"/><path d="M91.593,65.014a1.724,1.724,0,0,1-1.223-.506L87.223,61.36a1.729,1.729,0,1,1,2.446-2.446l1.924,1.924,5.632-5.632a1.729,1.729,0,0,1,2.446,2.446l-6.854,6.854A1.725,1.725,0,0,1,91.593,65.014Z" transform="translate(-35.329 -45.242)"/><path class="c" d="M58.18,28.36A14.18,14.18,0,1,1,72.36,14.18,14.2,14.2,0,0,1,58.18,28.36Zm0-24.9A10.721,10.721,0,1,0,68.9,14.18,10.734,10.734,0,0,0,58.18,3.459Z"/></g><path class="g" d="M29.43,11.472,19.146,2.592a1.4,1.4,0,0,0-2.319,1.061V8.331C7.442,8.438,0,10.319,0,19.213a11.944,11.944,0,0,0,4.869,9.006,1.041,1.041,0,0,0,1.64-1.089C3.86,18.657,7.766,16.408,16.827,16.278v5.137a1.4,1.4,0,0,0,2.319,1.061L29.43,13.595A1.4,1.4,0,0,0,29.43,11.472Z" transform="translate(1097 1046.324)"/></g></svg>