<svg xmlns="http://www.w3.org/2000/svg" width="92.555" height="77.892" viewBox="0 0 92.555 77.892"><defs><style>.a{fill:#eef4ff;}.b{fill:#d9e6fc;}.c{fill:#425796;}.d{fill:#ffb454;}.e{fill:#ffe278;}.f{fill:#78b7ea;}.g{fill:#bceaf9;}.h{fill:#283758;}.i{fill:#d8225b;}.j{fill:#dd5958;}</style></defs><g transform="translate(0 -40.555)"><path class="a" d="M92.555,54.113V70.021A13.573,13.573,0,0,1,79,83.578H13.558A13.573,13.573,0,0,1,0,70.021V54.113A13.573,13.573,0,0,1,13.558,40.555H79A13.573,13.573,0,0,1,92.555,54.113Z"/><path class="b" d="M302.277,54.113V70.021a13.573,13.573,0,0,1-13.558,13.558H256V40.555h32.719A13.573,13.573,0,0,1,302.277,54.113Z" transform="translate(-209.723)"/><path class="c" d="M67.712,104.555A2.712,2.712,0,0,0,65,107.267v14.462a2.712,2.712,0,0,0,5.423,0V107.267A2.712,2.712,0,0,0,67.712,104.555Z" transform="translate(-53.25 -52.431)"/><path class="d" d="M331.313,290.911l.047-.047a2.713,2.713,0,0,1,3.787.005l8.3,8.12a2.71,2.71,0,0,1,.042,3.834c-.011.011-.02.02-.031.029a2.709,2.709,0,0,1-3.8.013l-8.3-8.12a2.71,2.71,0,0,1-.042-3.834Z" transform="translate(-270.787 -204.432)"/><path class="e" d="M331.313,294.389l.047-.047,12.1,11.989a2.709,2.709,0,0,1-3.8.013l-8.3-8.12A2.71,2.71,0,0,1,331.313,294.389Z" transform="translate(-270.787 -207.91)"/><ellipse class="f" cx="21.513" cy="21.512" rx="21.513" ry="21.512" transform="translate(27.656 53.57)"/><path class="g" d="M159.347,147.4l30.424,30.424A21.513,21.513,0,0,1,159.347,147.4Z" transform="translate(-125.389 -87.535)"/><path class="h" d="M159.347,149.257a21.513,21.513,0,1,0,0-30.424A21.5,21.5,0,0,0,159.347,149.257Zm15.212-31.3a16.089,16.089,0,1,1-16.089,16.089A16.081,16.081,0,0,1,174.559,117.956Z" transform="translate(-125.389 -58.962)"/><path class="c" d="M159.347,147.4l3.836,3.836a16.088,16.088,0,0,0,22.752,22.752l3.836,3.836A21.513,21.513,0,0,1,159.347,147.4Z" transform="translate(-125.389 -87.535)"/><path class="i" d="M369.481,329.037a8.489,8.489,0,0,1,12.014,0l9.2,9.2a8.5,8.5,0,0,1-12.016,12.016l-9.2-9.2a8.488,8.488,0,0,1,0-12.014Z" transform="translate(-300.649 -234.292)"/><path class="j" d="M369.481,339.924c.031-.031.061-.061.092-.089l21.215,21.215a8.508,8.508,0,0,1-12.1.092l-9.2-9.2A8.488,8.488,0,0,1,369.481,339.924Z" transform="translate(-300.649 -245.179)"/></g></svg>